<svg width="35" height="45" viewBox="0 0 35 45" fill="none" xmlns="http://www.w3.org/2000/svg">
<g clip-path="url(#clip0_1602_661)">
<path d="M26.7931 24.4364C23.2876 24.4364 20.4362 27.2879 20.4362 30.7933C20.4362 34.2988 23.2876 37.1502 26.7931 37.1502C30.2985 37.1502 33.15 34.2988 33.15 30.7933C33.15 27.2879 30.2985 24.4364 26.7931 24.4364ZM26.7931 35.8157C24.0239 35.8157 21.7707 33.5625 21.7707 30.7933C21.7707 28.0241 24.0239 25.7709 26.7931 25.7709C29.5623 25.7709 31.8155 28.0241 31.8155 30.7933C31.8155 33.5625 29.5623 35.8157 26.7931 35.8157Z" fill="#ABB0B7" stroke="#ABB0B7" stroke-width="0.3"/>
<path d="M29.8966 30.1258H27.4604V27.6896C27.4604 27.3207 27.162 27.0224 26.7931 27.0224C26.4242 27.0224 26.1259 27.3207 26.1259 27.6896V30.7931C26.1259 31.1619 26.4242 31.4603 26.7931 31.4603H29.8966C30.2654 31.4603 30.5638 31.1619 30.5638 30.7931C30.5638 30.4242 30.2654 30.1258 29.8966 30.1258Z" fill="#ABB0B7" stroke="#ABB0B7" stroke-width="0.3"/>
<path d="M6.62061 17.7123H6.47061V17.8623V22.5175V23.552V27.1726V28.2071V32.8623V33.0123H6.62061H11.2758H12.3103H16.9654H17.1154V32.8623V28.2071V27.1726V23.702H20.5861H21.6206H26.2758H26.4258V23.552V17.8623V17.7123H26.2758H21.6206H20.5861H16.9654H15.931H12.3103H11.2758H6.62061ZM21.7706 19.0468H25.0913V22.3675H21.7706V19.0468ZM12.4603 19.0468H15.7809V22.3675H12.4603V19.0468ZM7.80509 19.0468H11.1258V22.3675H7.80509V19.0468ZM7.80509 23.702H11.1258V27.0226H7.80509V23.702ZM11.1258 31.6778H7.80509V28.3571H11.1258V31.6778ZM15.7809 31.6778H12.4603V28.3571H15.7809V31.6778ZM15.7809 27.0226H12.4603V23.702H15.7809V27.0226ZM20.4361 22.3675H17.1154V19.0468H20.4361V22.3675Z" fill="#ABB0B7" stroke="#ABB0B7" stroke-width="0.3"/>
<path d="M20.069 35.2983H4.18448V15.4259H28.7121V22C28.7121 22.3689 29.0104 22.6672 29.3793 22.6672C29.7482 22.6672 30.0466 22.3689 30.0466 22V14.7586V9.58621C30.0466 9.21733 29.7482 8.91897 29.3793 8.91897H26.9431V7.51724C26.9431 7.14836 26.6447 6.85 26.2759 6.85H22.6552C22.2863 6.85 21.9879 7.14836 21.9879 7.51724V8.91897H10.9086V7.51724C10.9086 7.14836 10.6103 6.85 10.2414 6.85H6.62069C6.25181 6.85 5.95345 7.14836 5.95345 7.51724V8.91897H3.51724C3.14836 8.91897 2.85 9.21733 2.85 9.58621V14.7586V35.9655C2.85 36.3344 3.14836 36.6328 3.51724 36.6328H20.069C20.4378 36.6328 20.7362 36.3344 20.7362 35.9655C20.7362 35.5966 20.4378 35.2983 20.069 35.2983ZM23.3224 8.18448H25.6086V9.58621V10.9879H23.3224V9.58621V8.18448ZM7.28793 8.18448H9.57414V9.58621V10.9879H7.28793V9.58621V8.18448ZM4.18448 10.2534H5.95345V11.6552C5.95345 12.024 6.25181 12.3224 6.62069 12.3224H10.2414C10.6103 12.3224 10.9086 12.024 10.9086 11.6552V10.2534H21.9879V11.6552C21.9879 12.024 22.2863 12.3224 22.6552 12.3224H26.2759C26.6447 12.3224 26.9431 12.024 26.9431 11.6552V10.2534H28.7121V14.0914H4.18448V10.2534Z" fill="#ABB0B7" stroke="#ABB0B7" stroke-width="0.3"/>
</g>
<defs>
<clipPath id="clip0_1602_661">
<rect width="30" height="30" fill="white" transform="translate(3 7)"/>
</clipPath>
</defs>
</svg>
