<svg width="30" height="30" viewBox="0 0 30 30" fill="none" xmlns="http://www.w3.org/2000/svg">
<g clip-path="url(#clip0_137_792)">
<path d="M21.8489 16.9899C20.8778 16.9899 20.0905 16.2026 20.0905 15.2314C20.0905 14.2602 20.8778 13.4729 21.8489 13.4729C22.8201 13.4729 23.6074 14.2602 23.6074 15.2314C23.6074 16.2026 22.8201 16.9899 21.8489 16.9899Z" fill="black"/>
<path d="M15.0003 16.9899C14.0291 16.9899 13.2418 16.2026 13.2418 15.2314C13.2418 14.2602 14.0291 13.4729 15.0003 13.4729C15.9715 13.4729 16.7588 14.2602 16.7588 15.2314C16.7588 16.2026 15.9715 16.9899 15.0003 16.9899Z" fill="black"/>
<path d="M15.0002 0C23.2289 0 29.9233 6.69445 29.9233 14.9231C29.9233 18.3546 28.7398 21.6798 26.5822 24.3335C27.1977 25.8843 28.2285 27.2253 29.581 28.2289C29.788 28.3826 29.8929 28.6384 29.8531 28.8932C29.8134 29.1481 29.6357 29.3598 29.3917 29.4431C28.3104 29.8126 27.1838 30 26.043 30C24.2316 30 22.4614 29.5286 20.9 28.6337C19.0343 29.4385 17.0513 29.8465 15.0001 29.8465C6.77143 29.8465 0.0769749 23.1519 0.0769749 14.9232C0.0769749 6.69455 6.77152 0 15.0002 0ZM15.0002 28.4581C16.9734 28.4581 18.8764 28.0423 20.656 27.2224C20.8682 27.1246 21.115 27.14 21.3133 27.2634C22.7306 28.1454 24.3662 28.6115 26.0431 28.6115C26.6033 28.6115 27.1597 28.5593 27.7073 28.4557C26.5484 27.334 25.6698 25.9614 25.1355 24.4253C25.0542 24.1916 25.1034 23.9322 25.2648 23.7447C27.3737 21.2934 28.5351 18.1605 28.5351 14.9231C28.5351 7.46004 22.4633 1.38828 15.0002 1.38828C7.53711 1.38828 1.46534 7.46004 1.46534 14.9231C1.46525 22.3864 7.53702 28.4581 15.0002 28.4581Z" fill="black"/>
<path d="M8.15118 16.9899C7.18 16.9899 6.3927 16.2026 6.3927 15.2314C6.3927 14.2602 7.18 13.4729 8.15118 13.4729C9.12237 13.4729 9.90967 14.2602 9.90967 15.2314C9.90967 16.2026 9.12237 16.9899 8.15118 16.9899Z" fill="black"/>
</g>
<defs>
<clipPath id="clip0_137_792">
<rect width="30" height="30" fill="white" transform="matrix(-1 0 0 1 30 0)"/>
</clipPath>
</defs>
</svg>
