<svg width="35" height="45" viewBox="0 0 35 45" fill="none" xmlns="http://www.w3.org/2000/svg">
<path d="M24.772 23.9896C23.8009 23.9896 23.0136 23.2023 23.0136 22.2311C23.0136 21.26 23.8009 20.4727 24.772 20.4727C25.7432 20.4727 26.5305 21.26 26.5305 22.2311C26.5305 23.2023 25.7432 23.9896 24.772 23.9896Z" fill="#ABB0B7" stroke="#ABB0B7" stroke-width="0.3"/>
<path d="M17.9234 23.9896C16.9522 23.9896 16.1649 23.2023 16.1649 22.2311C16.1649 21.26 16.9522 20.4727 17.9234 20.4727C18.8946 20.4727 19.6819 21.26 19.6819 22.2311C19.6819 23.2023 18.8946 23.9896 17.9234 23.9896Z" fill="#ABB0B7" stroke="#ABB0B7" stroke-width="0.3"/>
<path d="M17.9233 7C26.152 7 32.8464 13.6945 32.8464 21.9231C32.8464 25.3546 31.6629 28.6798 29.5053 31.3335C30.1208 32.8843 31.1516 34.2253 32.5041 35.2289C32.7111 35.3826 32.816 35.6384 32.7762 35.8932C32.7365 36.1481 32.5588 36.3598 32.3148 36.4431C31.2335 36.8126 30.1069 37 28.9661 37C27.1547 37 25.3845 36.5286 23.8231 35.6337C21.9574 36.4385 19.9744 36.8465 17.9232 36.8465C9.69452 36.8465 3.00007 30.1519 3.00007 21.9232C3.00007 13.6945 9.69462 7 17.9233 7ZM17.9233 35.4581C19.8965 35.4581 21.7995 35.0423 23.5791 34.2224C23.7913 34.1246 24.0381 34.14 24.2364 34.2634C25.6537 35.1454 27.2893 35.6115 28.9662 35.6115C29.5264 35.6115 30.0828 35.5593 30.6304 35.4557C29.4715 34.334 28.5929 32.9614 28.0585 31.4253C27.9773 31.1916 28.0265 30.9322 28.1879 30.7447C30.2968 28.2934 31.4582 25.1605 31.4582 21.9231C31.4582 14.46 25.3864 8.38828 17.9233 8.38828C10.4602 8.38828 4.38844 14.46 4.38844 21.9231C4.38834 29.3864 10.4601 35.4581 17.9233 35.4581Z" fill="#ABB0B7" stroke="#ABB0B7" stroke-width="0.3"/>
<path d="M11.0745 23.9896C10.1033 23.9896 9.31604 23.2023 9.31604 22.2311C9.31604 21.26 10.1033 20.4727 11.0745 20.4727C12.0457 20.4727 12.833 21.26 12.833 22.2311C12.833 23.2023 12.0457 23.9896 11.0745 23.9896Z" fill="#ABB0B7" stroke="#ABB0B7" stroke-width="0.3"/>
</svg>
