<svg width="35" height="45" viewBox="0 0 35 45" fill="none" xmlns="http://www.w3.org/2000/svg">
<path fill-rule="evenodd" clip-rule="evenodd" d="M20.4338 9.01135L30.7541 17.4545L30.8072 17.513C30.968 17.6897 31.2141 17.9711 31.4225 18.3069C31.6212 18.6274 31.8571 19.1092 31.8571 19.6739V33.7117C31.8571 34.8943 30.9001 35.8571 29.7143 35.8571H23.0287C22.1411 35.8571 21.4215 35.1376 21.4215 34.25V29.2078C21.4215 27.2801 19.8634 25.722 17.9466 25.722C16.0299 25.722 14.4716 27.2801 14.4716 29.2078V34.25C14.4716 35.1376 13.7521 35.8571 12.8645 35.8571H6.14286C4.95698 35.8571 4 34.8943 4 33.7117V19.5098C4 18.8108 4.38892 18.2471 4.61056 17.9673C4.73981 17.8041 4.8665 17.6711 4.96033 17.579C5.00789 17.5323 5.04868 17.4944 5.07936 17.4668C5.09473 17.4529 5.10769 17.4415 5.11782 17.4327L5.1309 17.4214L5.13579 17.4172L5.13869 17.4148C5.13869 17.4148 5.13953 17.4141 5.82946 18.2338L5.13953 17.4141L5.1502 17.4051L15.388 9.01375C16.7984 7.66301 19.0221 7.66195 20.4338 9.01135ZM6.52049 19.0528L6.51443 19.0581C6.50364 19.0679 6.48521 19.0849 6.4617 19.1079C6.4134 19.1554 6.35059 19.2217 6.29033 19.2978C6.22821 19.3762 6.18357 19.4465 6.15758 19.5011C6.14994 19.5172 6.14541 19.5288 6.14286 19.5361V33.7117L6.14292 33.7134L6.14361 33.7143H12.3288V29.2078C12.3288 26.1016 14.8416 23.5791 17.9466 23.5791C21.0517 23.5791 23.5644 26.1016 23.5644 29.2078V33.7143H29.7135L29.7142 33.7134L29.7143 33.7117V19.6739C29.7143 19.6774 29.7151 19.6777 29.7143 19.6739C29.7106 19.6584 29.6916 19.5816 29.6016 19.4366C29.5116 19.2917 29.3934 19.1468 29.2729 19.0113L19.0043 10.6105L18.9694 10.5761C18.3816 9.99804 17.4412 9.99848 16.8539 10.5772L16.819 10.6115L6.52049 19.0528Z" fill="#ABB0B7"/>
</svg>
