<svg width="54" height="54" viewBox="0 0 54 54" fill="none" xmlns="http://www.w3.org/2000/svg">
<path fill-rule="evenodd" clip-rule="evenodd" d="M31.8433 2.0267L51.7959 18.3502L51.8986 18.4632C52.2094 18.8048 52.6852 19.349 53.0881 19.9981C53.4723 20.6177 53.9284 21.5492 53.9284 22.6409V49.7807C53.9284 52.067 52.0782 53.9286 49.7856 53.9286H36.8601C35.1441 53.9286 33.7529 52.5374 33.7529 50.8214V41.0731C33.7529 37.3464 30.7404 34.3339 27.0347 34.3339C23.3291 34.3339 20.3164 37.3464 20.3164 41.0731V50.8214C20.3164 52.5374 18.9254 53.9286 17.2093 53.9286H4.21415C1.92145 53.9286 0.0712891 52.067 0.0712891 49.7807V22.3237C0.0712891 20.9723 0.823197 19.8826 1.25171 19.3415C1.50159 19.026 1.74652 18.769 1.92793 18.5907C2.01988 18.5004 2.09874 18.4273 2.15805 18.3738C2.18777 18.347 2.21281 18.3249 2.23241 18.3079L2.2577 18.2861L2.26715 18.278L2.27276 18.2733C2.27276 18.2733 2.27438 18.2719 3.60825 19.8567L2.27438 18.2719L2.29501 18.2546L22.0881 2.03134C24.8149 -0.580097 29.114 -0.582149 31.8433 2.0267ZM4.94424 21.4401L4.93252 21.4504C4.91166 21.4693 4.87603 21.5022 4.83058 21.5467C4.7372 21.6385 4.61575 21.7667 4.49926 21.9138C4.37916 22.0654 4.29286 22.2013 4.24261 22.307C4.22784 22.338 4.21908 22.3604 4.21415 22.3745V49.7807L4.21427 49.784L4.2156 49.7857H16.1736V41.0731C16.1736 35.0678 21.0317 30.191 27.0347 30.191C33.0379 30.191 37.8958 35.0678 37.8958 41.0731V49.7857H49.7841L49.7854 49.784L49.7856 49.7807V22.6409C49.7856 22.6477 49.7872 22.6483 49.7856 22.6409C49.7785 22.611 49.7417 22.4625 49.5677 22.1823C49.3937 21.902 49.1652 21.6219 48.9321 21.3599L29.0796 5.11835L29.012 5.05194C27.8757 3.9343 26.0576 3.93515 24.9222 5.0539L24.8547 5.1204L4.94424 21.4401Z" fill="black"/>
</svg>
