<svg width="35" height="45" viewBox="0 0 35 45" fill="none" xmlns="http://www.w3.org/2000/svg">
<path d="M13.75 32.7999V32.0708H8.28128C7.4114 32.0696 6.57747 31.7235 5.96237 31.1084C5.34726 30.4933 5.00119 29.6594 5.00003 28.7895V28.2324C4.99717 27.5387 5.18905 26.858 5.55385 26.2679C5.91864 25.6778 6.44171 25.2019 7.06357 24.8943C7.34166 24.7552 7.57948 24.5472 7.75435 24.2902C7.92923 24.0331 8.03533 23.7355 8.06253 23.4258L8.71295 16.2653C8.91591 14.0075 9.9563 11.9073 11.6295 10.3777C13.3027 8.84817 15.4877 8 17.7546 8C20.0216 8 22.2065 8.84817 23.8797 10.3777C25.5529 11.9073 26.5933 14.0075 26.7963 16.2653L27.4467 23.4258C27.4761 23.7347 27.5833 24.0311 27.7583 24.2873C27.9332 24.5436 28.1702 24.7514 28.4471 24.8914C29.0695 25.1991 29.5931 25.6752 29.9586 26.2655C30.3242 26.8558 30.5169 27.5367 30.515 28.231V28.788C30.5143 29.6581 30.1683 30.4922 29.5531 31.1074C28.9379 31.7226 28.1038 32.0685 27.2338 32.0693H21.7709V32.7999C21.7709 33.8636 21.3483 34.8836 20.5962 35.6357C19.8441 36.3878 18.8241 36.8103 17.7604 36.8103C16.6968 36.8103 15.6768 36.3878 14.9247 35.6357C14.1726 34.8836 13.75 33.8636 13.75 32.7999ZM15.9375 32.7999C15.9375 33.2834 16.1296 33.7471 16.4715 34.0889C16.8133 34.4308 17.277 34.6228 17.7604 34.6228C18.2439 34.6228 18.7076 34.4308 19.0494 34.0889C19.3913 33.7471 19.5834 33.2834 19.5834 32.7999V32.0708H15.9375V32.7999ZM10.899 16.4666L10.25 23.6241C10.1898 24.3055 9.95556 24.96 9.56971 25.5249C9.18386 26.0898 8.65935 26.546 8.04649 26.8499C7.78815 26.9771 7.57069 27.1742 7.41884 27.4189C7.26699 27.6636 7.18685 27.9459 7.18753 28.2339V28.791C7.1883 29.0807 7.30383 29.3583 7.50882 29.563C7.71382 29.7677 7.99157 29.8829 8.28128 29.8833H27.2396C27.5296 29.8829 27.8076 29.7675 28.0126 29.5625C28.2176 29.3574 28.333 29.0795 28.3334 28.7895V28.2324C28.3343 27.9451 28.2548 27.6633 28.1037 27.419C27.9527 27.1746 27.7362 26.9775 27.4788 26.8499C26.8652 26.5465 26.3399 26.0904 25.9532 25.5256C25.5666 24.9607 25.3316 24.3059 25.2709 23.6241L24.6234 16.4666C24.4673 14.7544 23.6769 13.1625 22.4072 12.0033C21.1376 10.844 19.4804 10.2013 17.7612 10.2013C16.0419 10.2013 14.3848 10.844 13.1151 12.0033C11.8455 13.1625 11.055 14.7544 10.899 16.4666V16.4666Z" fill="#ABB0B7"/>
</svg>
