<svg width="48" height="54" viewBox="0 0 48 54" fill="none" xmlns="http://www.w3.org/2000/svg">
<path d="M16.6666 46.3333V45H6.66656C5.07591 44.9978 3.55102 44.365 2.42626 43.2403C1.3015 42.1155 0.668678 40.5906 0.666561 39V37.9813C0.661335 36.7127 1.0122 35.4681 1.67925 34.389C2.34631 33.31 3.30278 32.4397 4.43989 31.8773C4.94839 31.623 5.38326 31.2427 5.70303 30.7726C6.0228 30.3025 6.21681 29.7583 6.26656 29.192L7.4559 16.0986C7.82703 11.97 9.72946 8.12957 12.789 5.33269C15.8486 2.53581 19.8439 0.984863 23.9892 0.984863C28.1345 0.984863 32.1298 2.53581 35.1894 5.33269C38.249 8.12957 40.1514 11.97 40.5226 16.0986L41.7119 29.192C41.7657 29.7568 41.9617 30.2988 42.2816 30.7674C42.6015 31.2361 43.0348 31.616 43.5412 31.872C44.6793 32.4347 45.6368 33.3052 46.3052 34.3846C46.9735 35.464 47.326 36.7091 47.3226 37.9786V38.9973C47.3211 40.5882 46.6886 42.1135 45.5636 43.2384C44.4387 44.3633 42.9134 44.9959 41.3226 44.9973H31.3332V46.3333C31.3332 48.2782 30.5606 50.1435 29.1853 51.5187C27.8101 52.894 25.9448 53.6666 23.9999 53.6666C22.055 53.6666 20.1897 52.894 18.8144 51.5187C17.4392 50.1435 16.6666 48.2782 16.6666 46.3333ZM20.6666 46.3333C20.6666 47.2174 21.0178 48.0652 21.6429 48.6903C22.268 49.3154 23.1158 49.6666 23.9999 49.6666C24.884 49.6666 25.7318 49.3154 26.3569 48.6903C26.982 48.0652 27.3332 47.2174 27.3332 46.3333V45H20.6666V46.3333ZM11.4532 16.4666L10.2666 29.5546C10.1565 30.8007 9.72811 31.9975 9.02254 33.0304C8.31698 34.0633 7.35789 34.8976 6.23723 35.4533C5.76484 35.6859 5.36719 36.0463 5.08953 36.4937C4.81186 36.9411 4.66532 37.4574 4.66656 37.984V39.0026C4.66797 39.5324 4.87922 40.04 5.25407 40.4143C5.62891 40.7887 6.13681 40.9993 6.66656 41H41.3332C41.8634 40.9993 42.3717 40.7883 42.7467 40.4134C43.1216 40.0385 43.3325 39.5302 43.3332 39V37.9813C43.335 37.456 43.1896 36.9407 42.9134 36.4939C42.6372 36.047 42.2412 35.6865 41.7706 35.4533C40.6486 34.8984 39.688 34.0645 38.981 33.0316C38.274 31.9987 37.8444 30.8014 37.7332 29.5546L36.5492 16.4666C36.2639 13.3358 34.8185 10.4248 32.4969 8.3051C30.1752 6.1854 27.145 5.01018 24.0012 5.01018C20.8575 5.01018 17.8273 6.1854 15.5056 8.3051C13.1839 10.4248 11.7385 13.3358 11.4532 16.4666Z" fill="#141124"/>
</svg>
