<svg width="52" height="52" viewBox="0 0 52 52" fill="none" xmlns="http://www.w3.org/2000/svg">
<g clip-path="url(#clip0_130_645)">
<path d="M49.3383 20.5416L45.6885 19.9224C45.3083 18.6949 44.8194 17.5109 44.222 16.3812L46.3728 13.3722C47.2853 12.0904 47.1441 10.3415 46.0252 9.23353L42.7881 5.99645C42.1798 5.38814 41.376 5.05139 40.5178 5.05139C39.8443 5.05139 39.2034 5.25778 38.6603 5.64884L35.6405 7.79965C34.4673 7.18048 33.2398 6.66993 31.9689 6.28974L31.3606 2.68333C31.0999 1.12996 29.7638 0.000244141 28.1887 0.000244141H23.6155C22.0404 0.000244141 20.7043 1.12996 20.4436 2.68333L19.8135 6.37664C18.5969 6.75683 17.4129 7.25652 16.2832 7.86483L13.2959 5.71402C12.7528 5.32296 12.101 5.11657 11.4275 5.11657C10.5694 5.11657 9.75469 5.45331 9.15724 6.06162L5.9093 9.2987C4.80131 10.4067 4.64923 12.1556 5.5617 13.4374L7.73423 16.4898C7.13678 17.6304 6.65883 18.8144 6.28949 20.0419L2.68308 20.6502C1.12972 20.9109 0 22.247 0 23.8221V28.3953C0 29.9704 1.12972 31.3065 2.68308 31.5672L6.3764 32.1972C6.75659 33.4139 7.25627 34.5979 7.86458 35.7276L5.72464 38.704C4.81217 39.9858 4.95338 41.7347 6.07224 42.8427L9.30932 46.0798C9.91763 46.6881 10.7215 47.0248 11.5796 47.0248C12.2531 47.0248 12.894 46.8184 13.4371 46.4274L16.4896 44.2548C17.5867 44.8305 18.7381 45.2976 19.9222 45.667L20.5305 49.3168C20.7912 50.8702 22.1273 51.9999 23.7024 51.9999H28.2864C29.8615 51.9999 31.1976 50.8702 31.4583 49.3168L32.0775 45.667C33.305 45.2868 34.489 44.798 35.6187 44.2005L38.6277 46.3513C39.1708 46.7424 39.8226 46.9488 40.4961 46.9488C41.3542 46.9488 42.1581 46.612 42.7664 46.0037L46.0035 42.7666C47.1115 41.6586 47.2635 39.9097 46.3511 38.6279L44.2003 35.6081C44.7977 34.4675 45.2974 33.2835 45.6667 32.0669L49.3166 31.4586C50.87 31.1979 51.9997 29.8618 51.9997 28.2867V23.7135C52.0214 22.1384 50.8917 20.8023 49.3383 20.5416ZM49.0885 28.2867C49.0885 28.4279 48.9907 28.5474 48.8495 28.5691L44.2872 29.3295C43.7114 29.4273 43.2552 29.8509 43.114 30.4049C42.7012 32.0017 42.0712 33.5333 41.2239 34.9564C40.9306 35.456 40.9523 36.0752 41.2891 36.5532L43.9721 40.3334C44.0482 40.442 44.0373 40.605 43.9396 40.7027L40.7025 43.9398C40.6264 44.0158 40.5504 44.0267 40.4961 44.0267C40.4309 44.0267 40.3766 44.005 40.3331 43.9724L36.5638 41.2893C36.0967 40.9526 35.4667 40.9308 34.967 41.2241C33.544 42.0714 32.0123 42.7015 30.4155 43.1142C29.8507 43.2555 29.427 43.7225 29.3401 44.2874L28.5689 48.8497C28.5471 48.9909 28.4276 49.0887 28.2864 49.0887H23.7132C23.572 49.0887 23.4525 48.9909 23.4308 48.8497L22.6704 44.2874C22.5727 43.7117 22.149 43.2555 21.595 43.1142C20.0417 42.7123 18.5426 42.0931 17.1413 41.2893C16.9132 41.159 16.6525 41.0938 16.4027 41.0938C16.1094 41.0938 15.8052 41.1807 15.5554 41.3653L11.7534 44.0702C11.6991 44.1027 11.6448 44.1245 11.5905 44.1245C11.547 44.1245 11.4601 44.1136 11.3841 44.0376L8.14701 40.8005C8.04925 40.7027 8.03839 40.5506 8.11443 40.4312L10.7866 36.6835C11.1234 36.2056 11.1451 35.5755 10.8518 35.0759C10.0045 33.6637 9.35277 32.1321 8.93999 30.5352C8.78791 29.9813 8.33168 29.5576 7.76682 29.4598L3.1719 28.6777C3.03069 28.656 2.93293 28.5365 2.93293 28.3953V23.8221C2.93293 23.6809 3.03069 23.5614 3.1719 23.5397L7.70164 22.7793C8.27737 22.6815 8.74446 22.2579 8.88568 21.693C9.2876 20.0962 9.90677 18.5537 10.7432 17.1307C11.0365 16.631 11.0039 16.0118 10.6672 15.5447L7.96235 11.7428C7.88631 11.6342 7.89717 11.4712 7.99494 11.3735L11.232 8.13639C11.3081 8.06036 11.3841 8.04949 11.4384 8.04949C11.5036 8.04949 11.5579 8.07122 11.6013 8.10381L15.349 10.776C15.8269 11.1128 16.457 11.1345 16.9567 10.8412C18.3688 9.99391 19.9004 9.34215 21.4973 8.92937C22.0513 8.77729 22.4749 8.32106 22.5727 7.7562L23.3548 3.16129C23.3765 3.02007 23.496 2.92231 23.6372 2.92231H28.2104C28.3516 2.92231 28.4711 3.02007 28.4928 3.16129L29.2532 7.69102C29.351 8.26675 29.7746 8.73384 30.3395 8.87506C31.9797 9.28784 33.544 9.92874 34.9996 10.7869C35.4993 11.0802 36.1184 11.0585 36.5964 10.7217L40.344 8.02777C40.3983 7.99518 40.4526 7.97345 40.507 7.97345C40.5504 7.97345 40.6373 7.98432 40.7133 8.06036L43.9504 11.2974C44.0482 11.3952 44.0591 11.5473 43.983 11.6668L41.2999 15.4361C40.9632 15.9032 40.9415 16.5332 41.2348 17.0329C42.082 18.4559 42.7121 19.9876 43.1249 21.5844C43.2661 22.1493 43.7332 22.5729 44.298 22.6598L48.8604 23.4311C49.0016 23.4528 49.0993 23.5723 49.0993 23.7135V28.2867H49.0885Z" fill="black"/>
<path d="M26.0053 14.7734C19.8136 14.7734 14.7842 19.8029 14.7842 25.9946C14.7842 32.1863 19.8136 37.2157 26.0053 37.2157C32.1971 37.2157 37.2265 32.1863 37.2265 25.9946C37.2265 19.8029 32.1971 14.7734 26.0053 14.7734ZM26.0053 34.2828C21.4321 34.2828 17.7171 30.5678 17.7171 25.9946C17.7171 21.4214 21.4321 17.7064 26.0053 17.7064C30.5785 17.7064 34.2936 21.4214 34.2936 25.9946C34.2936 30.5678 30.5785 34.2828 26.0053 34.2828Z" fill="black"/>
</g>
<defs>
<clipPath id="clip0_130_645">
<rect width="52" height="52" fill="white"/>
</clipPath>
</defs>
</svg>
