<svg width="35" height="45" viewBox="0 0 35 45" fill="none" xmlns="http://www.w3.org/2000/svg">
<g clip-path="url(#clip0_1602_669)">
<path d="M31.4644 18.8508L29.3587 18.4936C29.1394 17.7854 28.8574 17.1023 28.5127 16.4505L29.7535 14.7146C30.28 13.9751 30.1985 12.9661 29.553 12.3269L27.6855 10.4593C27.3345 10.1084 26.8708 9.91412 26.3757 9.91412C25.9871 9.91412 25.6174 10.0332 25.304 10.2588L23.5618 11.4997C22.885 11.1424 22.1768 10.8479 21.4436 10.6286L21.0926 8.54793C20.9422 7.65176 20.1714 7 19.2627 7H16.6243C15.7156 7 14.9448 7.65176 14.7944 8.54793L14.4309 10.6787C13.729 10.898 13.0459 11.1863 12.3941 11.5373L10.6707 10.2964C10.3574 10.0708 9.98136 9.95173 9.59281 9.95173C9.09773 9.95173 8.62771 10.146 8.28303 10.4969L6.40921 12.3645C5.76998 13.0037 5.68225 14.0127 6.20867 14.7522L7.46206 16.5132C7.11738 17.1712 6.84163 17.8543 6.62855 18.5625L4.54793 18.9134C3.65176 19.0638 3 19.8347 3 20.7434V23.3818C3 24.2905 3.65176 25.0613 4.54793 25.2117L6.67869 25.5752C6.89803 26.2771 7.18631 26.9602 7.53726 27.6119L6.30267 29.3291C5.77625 30.0686 5.85772 31.0776 6.50322 31.7168L8.37076 33.5843C8.72171 33.9353 9.18546 34.1296 9.68055 34.1296C10.0691 34.1296 10.4389 34.0105 10.7522 33.7849L12.5132 32.5315C13.1462 32.8636 13.8105 33.1331 14.4936 33.3462L14.8445 35.4519C14.9949 36.3481 15.7657 36.9998 16.6744 36.9998H19.3191C20.2278 36.9998 20.9986 36.3481 21.149 35.4519L21.5063 33.3462C22.2144 33.1268 22.8975 32.8448 23.5493 32.5002L25.2852 33.741C25.5986 33.9666 25.9746 34.0857 26.3631 34.0857C26.8582 34.0857 27.322 33.8914 27.6729 33.5405L29.5405 31.6729C30.1797 31.0337 30.2674 30.0247 29.741 29.2852L28.5002 27.543C28.8448 26.885 29.1331 26.2019 29.3462 25.5L31.4519 25.149C32.3481 24.9986 32.9998 24.2278 32.9998 23.3191V20.6807C33.0123 19.772 32.3606 19.0012 31.4644 18.8508ZM31.3203 23.3191C31.3203 23.4006 31.2639 23.4695 31.1824 23.482L28.5503 23.9207C28.2181 23.9771 27.9549 24.2215 27.8735 24.5411C27.6353 25.4624 27.2718 26.346 26.783 27.167C26.6138 27.4553 26.6263 27.8125 26.8206 28.0882L28.3685 30.2691C28.4124 30.3318 28.4061 30.4258 28.3497 30.4822L26.4822 32.3497C26.4383 32.3936 26.3945 32.3999 26.3631 32.3999C26.3255 32.3999 26.2942 32.3873 26.2691 32.3685L24.0945 30.8206C23.825 30.6263 23.4615 30.6138 23.1733 30.783C22.3523 31.2718 21.4687 31.6353 20.5474 31.8735C20.2215 31.9549 19.9771 32.2244 19.927 32.5503L19.482 35.1824C19.4695 35.2639 19.4006 35.3203 19.3191 35.3203H16.6807C16.5992 35.3203 16.5303 35.2639 16.5178 35.1824L16.0791 32.5503C16.0227 32.2181 15.7783 31.9549 15.4587 31.8735C14.5625 31.6416 13.6977 31.2844 12.8892 30.8206C12.7576 30.7454 12.6072 30.7078 12.4631 30.7078C12.2939 30.7078 12.1184 30.7579 11.9742 30.8645L9.78082 32.4249C9.74949 32.4437 9.71815 32.4563 9.68682 32.4563C9.66175 32.4563 9.61162 32.45 9.56775 32.4061L7.7002 30.5386C7.6438 30.4822 7.63753 30.3945 7.6814 30.3255L9.22307 28.1634C9.41734 27.8877 9.42987 27.5242 9.26067 27.2359C8.77185 26.4212 8.39583 25.5376 8.15769 24.6164C8.06995 24.2967 7.80674 24.0523 7.48086 23.9959L4.82994 23.5447C4.74847 23.5322 4.69207 23.4632 4.69207 23.3818V20.7434C4.69207 20.6619 4.74847 20.593 4.82994 20.5804L7.44326 20.1418C7.7754 20.0854 8.04488 19.8409 8.12635 19.5151C8.35823 18.5938 8.71544 17.7039 9.198 16.883C9.3672 16.5947 9.3484 16.2375 9.15413 15.968L7.59366 13.7746C7.54979 13.7119 7.55606 13.6179 7.61246 13.5615L9.48001 11.6939C9.52388 11.6501 9.56775 11.6438 9.59908 11.6438C9.63668 11.6438 9.66802 11.6563 9.69309 11.6751L11.8552 13.2168C12.1309 13.4111 12.4944 13.4236 12.7827 13.2544C13.5974 12.7656 14.481 12.3896 15.4023 12.1514C15.7219 12.0637 15.9663 11.8005 16.0227 11.4746L16.4739 8.82368C16.4864 8.74221 16.5554 8.68581 16.6368 8.68581H19.2752C19.3567 8.68581 19.4256 8.74221 19.4382 8.82368L19.8769 11.437C19.9333 11.7691 20.1777 12.0386 20.5035 12.1201C21.4499 12.3582 22.3523 12.728 23.1921 13.2231C23.4803 13.3923 23.8376 13.3797 24.1133 13.1855L26.2754 11.6313C26.3067 11.6125 26.3381 11.5999 26.3694 11.5999C26.3945 11.5999 26.4446 11.6062 26.4885 11.6501L28.356 13.5176C28.4124 13.574 28.4187 13.6618 28.3748 13.7307L26.8269 15.9053C26.6326 16.1748 26.6201 16.5383 26.7893 16.8266C27.2781 17.6475 27.6416 18.5312 27.8797 19.4524C27.9612 19.7783 28.2307 20.0227 28.5566 20.0728L31.1887 20.5178C31.2701 20.5303 31.3265 20.5992 31.3265 20.6807V23.3191H31.3203V23.3191Z" fill="#ABB0B7"/>
<path d="M18.003 15.5229C14.4309 15.5229 11.5293 18.4245 11.5293 21.9967C11.5293 25.5688 14.4309 28.4704 18.003 28.4704C21.5752 28.4704 24.4768 25.5688 24.4768 21.9967C24.4768 18.4245 21.5752 15.5229 18.003 15.5229ZM18.003 26.7784C15.3647 26.7784 13.2214 24.6351 13.2214 21.9967C13.2214 19.3583 15.3647 17.215 18.003 17.215C20.6414 17.215 22.7847 19.3583 22.7847 21.9967C22.7847 24.6351 20.6414 26.7784 18.003 26.7784Z" fill="#ABB0B7"/>
</g>
<defs>
<clipPath id="clip0_1602_669">
<rect width="30" height="30" fill="white" transform="translate(3 7)"/>
</clipPath>
</defs>
</svg>
